# xmcd
#
# Track frame offsets: 
#        150
#        17607
#        31545
#        44730
#        61580
#        75915
#        89957
#        103925
#        117815
#        132332
#
# Disc length: 2018 seconds
#
# Revision: 3
# Processed by: cddbd v1.4PL0 Copyright (c) Steve Scherf et al.
# Submitted via: ExactAudioCopy v0.90b4
#
DISCID=7807e00a
DTITLE=Dan Seals - The Songwriter
DYEAR=1900
DGENRE=Country
TTITLE0=Love On Arrival
TTITLE1=Three Time Loser
TTITLE2=Candle In The Rain
TTITLE3=Factory Town
TTITLE4=One Friend
TTITLE5=God Must Be A Cowboy
TTITLE6=I Won't Be Blue Anymore
TTITLE7=Headin' West
TTITLE8=Those
TTITLE9=Wood
EXTD=39
EXTT0=
EXTT1=
EXTT2=
EXTT3=
EXTT4=
EXTT5=
EXTT6=
EXTT7=
EXTT8=
EXTT9=
PLAYORDER=
